<svg id="Component_7_14" data-name="Component 7 – 14" xmlns="http://www.w3.org/2000/svg" xmlns:xlink="http://www.w3.org/1999/xlink" width="21.819" height="22.902" viewBox="0 0 21.819 22.902">
  <defs>
    <clipPath id="clip-path">
      <rect id="Rectangle_3" data-name="Rectangle 3" width="21.819" height="22.902" fill="#fff"/>
    </clipPath>
  </defs>
  <g id="Group_8" data-name="Group 8" clip-path="url(#clip-path)">
    <path id="Path_82" data-name="Path 82" d="M10.91,23.914a26.05,26.05,0,0,1-5.248-.536A6.574,6.574,0,0,1,.536,18.252a25.969,25.969,0,0,1,0-10.495A6.575,6.575,0,0,1,5.662,2.631a25.953,25.953,0,0,1,10.5,0,6.576,6.576,0,0,1,5.126,5.126,25.987,25.987,0,0,1,0,10.495,6.575,6.575,0,0,1-5.127,5.126,26.041,26.041,0,0,1-5.247.536m0-20.51a24.746,24.746,0,0,0-4.984.509A5.268,5.268,0,0,0,1.818,8.02a24.664,24.664,0,0,0,0,9.969A5.268,5.268,0,0,0,5.925,22.1a24.664,24.664,0,0,0,9.969,0h0A5.268,5.268,0,0,0,20,17.989,24.664,24.664,0,0,0,20,8.02a5.268,5.268,0,0,0-4.107-4.107A24.755,24.755,0,0,0,10.91,3.4" transform="translate(0 -1.012)" fill="#fff"/>
    <path id="Path_83" data-name="Path 83" d="M21.131,13.348H1.665a.654.654,0,0,1,0-1.309H21.131a.654.654,0,1,1,0,1.309" transform="translate(-0.488 -5.817)" fill="#fff"/>
    <path id="Path_84" data-name="Path 84" d="M20.835,23.244h-.611a.611.611,0,1,1,0-1.223h.611a.611.611,0,1,1,0,1.223m-4.279,0h-.611a.611.611,0,1,1,0-1.223h.611a.611.611,0,1,1,0,1.223m-4.28,0h-.611a.611.611,0,1,1,0-1.223h.611a.611.611,0,1,1,0,1.223" transform="translate(-5.34 -10.64)" fill="#fff"/>
    <path id="Path_85" data-name="Path 85" d="M20.835,31.222h-.611a.611.611,0,0,1,0-1.223h.611a.611.611,0,0,1,0,1.223m-4.279,0h-.611a.611.611,0,1,1,0-1.223h.611a.611.611,0,0,1,0,1.223m-4.28,0h-.611a.611.611,0,0,1,0-1.223h.611a.611.611,0,0,1,0,1.223" transform="translate(-5.34 -14.495)" fill="#fff"/>
    <path id="Path_86" data-name="Path 86" d="M28.777,4.016a.654.654,0,0,1-.654-.654V.748a.654.654,0,0,1,1.309,0V3.361a.654.654,0,0,1-.654.654" transform="translate(-13.588 -0.046)" fill="#fff"/>
    <path id="Path_87" data-name="Path 87" d="M12.215,3.921a.654.654,0,0,1-.654-.654V.654a.654.654,0,0,1,1.309,0V3.267a.654.654,0,0,1-.654.654" transform="translate(-5.586 0)" fill="#fff"/>
  </g>
</svg>
