<svg id="Component_1_4" data-name="Component 1 – 4" xmlns="http://www.w3.org/2000/svg" xmlns:xlink="http://www.w3.org/1999/xlink" width="20.883" height="22.902" viewBox="0 0 20.883 22.902">
  <defs>
    <clipPath id="clip-path">
      <rect id="Rectangle_7" data-name="Rectangle 7" width="20.883" height="22.902" fill="#fff"/>
    </clipPath>
  </defs>
  <g id="Group_16" data-name="Group 16" clip-path="url(#clip-path)">
    <path id="Path_100" data-name="Path 100" d="M15.4,22.9H5.479A5.484,5.484,0,0,1,0,17.423V9.558A5.46,5.46,0,0,1,2,5.327L6.961,1.245a5.487,5.487,0,0,1,6.961,0l4.963,4.082a5.46,5.46,0,0,1,2,4.231v7.865A5.484,5.484,0,0,1,15.4,22.9M10.442,1.526a3.943,3.943,0,0,0-2.51.9L2.968,6.506a3.939,3.939,0,0,0-1.44,3.052v7.865a3.955,3.955,0,0,0,3.951,3.951H15.4a3.955,3.955,0,0,0,3.951-3.951V9.558a3.939,3.939,0,0,0-1.44-3.052L12.952,2.424a3.943,3.943,0,0,0-2.51-.9" transform="translate(0 0)" fill="#fff"/>
    <path id="Path_101" data-name="Path 101" d="M13.683,33.828a.764.764,0,0,1-.764-.764V25.657a2.434,2.434,0,0,1,2.431-2.431h2.337a2.434,2.434,0,0,1,2.431,2.431v2.87a.764.764,0,1,1-1.527,0v-2.87a.905.905,0,0,0-.9-.9H15.35a.905.905,0,0,0-.9.9v7.407a.764.764,0,0,1-.764.764" transform="translate(-6.077 -10.926)" fill="#fff"/>
  </g>
</svg>
