<svg id="Component_12_12" data-name="Component 12 – 12" xmlns="http://www.w3.org/2000/svg" xmlns:xlink="http://www.w3.org/1999/xlink" width="22.934" height="22.934" viewBox="0 0 22.934 24">
  <defs>
    <clipPath id="clip-path">
      <rect id="Rectangle_5" data-name="Rectangle 5" width="22.934" height="22.934" fill="#ff8222"/>
    </clipPath>
  </defs>
  <g id="Group_12" data-name="Group 12" clip-path="url(#clip-path)">
    <path id="Path_91" data-name="Path 91" d="M11.467,22.934a27.443,27.443,0,0,1-5.525-.564A6.9,6.9,0,0,1,.564,16.992a27.345,27.345,0,0,1,0-11.051A6.9,6.9,0,0,1,5.942.564a27.345,27.345,0,0,1,11.051,0A6.9,6.9,0,0,1,22.37,5.942a27.327,27.327,0,0,1,0,11.051,6.9,6.9,0,0,1-5.377,5.377,27.438,27.438,0,0,1-5.525.564m0-21.623a26.183,26.183,0,0,0-5.262.537A5.589,5.589,0,0,0,1.849,6.205a26.034,26.034,0,0,0,0,10.524A5.588,5.588,0,0,0,6.2,21.086a26.036,26.036,0,0,0,10.524,0h0a5.589,5.589,0,0,0,4.357-4.357,26.055,26.055,0,0,0,0-10.524,5.589,5.589,0,0,0-4.357-4.357,26.178,26.178,0,0,0-5.262-.537" transform="translate(0 0)" fill="#ff8222"/>
    <path id="Path_92" data-name="Path 92" d="M4.178,29.181a.655.655,0,0,1-.463-1.119L8.22,23.557a2.58,2.58,0,0,1,3.644,0,1.268,1.268,0,0,0,1.79,0l3.9-3.9a2.639,2.639,0,0,1,3.644,0l2.71,2.71a.655.655,0,0,1-.927.927l-2.71-2.71a1.3,1.3,0,0,0-1.79,0l-3.9,3.9a2.579,2.579,0,0,1-3.644,0,1.268,1.268,0,0,0-1.79,0L4.641,28.989a.653.653,0,0,1-.463.192" transform="translate(-1.699 -9.131)" fill="#ff8222"/>
    <path id="Path_93" data-name="Path 93" d="M21.9,32.581a.653.653,0,0,1-.463-.192L17.67,28.617a.655.655,0,1,1,.927-.927l3.771,3.772a.655.655,0,0,1-.463,1.119" transform="translate(-8.431 -13.265)" fill="#ff8222"/>
    <path id="Path_94" data-name="Path 94" d="M13.141,14.45a2.82,2.82,0,1,1,2.82-2.82,2.823,2.823,0,0,1-2.82,2.82m0-4.329A1.509,1.509,0,1,0,14.65,11.63a1.511,1.511,0,0,0-1.509-1.509" transform="translate(-4.979 -4.25)" fill="#ff8222"/>
  </g>
</svg>
